{"buffers":[{"uri":"Full Robot v1.bin","byteLength":55573272}],"asset":{"version":"2.0","generator":"gltfpack 0.16"},"bufferViews":[{"buffer":0,"byteOffset":0,"byteLength":17775336,"byteStride":12,"target":34962},{"buffer":0,"byteOffset":17775336,"byteLength":17775336,"byteStride":12,"target":34962},{"buffer":0,"byteOffset":35550672,"byteLength":20022600,"target":34963}],"accessors":[{"bufferView":0,"byteOffset":0,"componentType":5126,"count":1481278,"type":"VEC3","min":[-0.00412216596,-0.00594994379,-0.000253999984],"max":[0.00412216596,0.00412216596,0.00625039218]},{"bufferView":1,"byteOffset":0,"componentType":5126,"count":1481278,"type":"VEC3"},{"bufferView":2,"byteOffset":0,"componentType":5125,"count":5005650,"type":"SCALAR"}],"materials":[{"pbrMetallicRoughness":{"baseColorFactor":[0.627451003,0.627451003,0.627451003,1],"metallicFactor":0,"roughnessFactor":0},"doubleSided":true}],"meshes":[{"primitives":[{"attributes":{"POSITION":0,"NORMAL":1},"mode":4,"indices":2,"material":0}]}],"nodes":[{"mesh":0},{"name":"Full Robot v1","children":[0]}],"scenes":[{"name":"Full Robot v1","nodes":[1]}]}