{"scene":0,"asset":{"generator":"ImageToStl.com","version":"2.0"},"scenes":[{"name":"Scene","nodes":[0]}],"nodes":[{"name":"Node0","children":[1]},{"name":"Node1","mesh":0,"NodeMesh":{"CalculatedWidth":0.8244332075119019,"CalculatedHeight":1.0072109699249268,"CalculatedDepth":0.6504392195492983,"MaxDimension":1.0072109699249268}}],"materials":[{"name":"x1","pbrMetallicRoughness":{"baseColorFactor":[0.85,0.85,0.85,1],"metallicFactor":0.05,"roughnessFactor":0.5},"doubleSided":true}],"meshes":[{"name":"Mesh0","primitives":[{"indices":2,"material":0,"attributes":{"POSITION":0,"NORMAL":1}}]}],"accessors":[{"bufferView":0,"componentType":5126,"count":3337381,"type":"VEC3","min":[-0.4122166,-0.59499437,-0.0254],"max":[0.4122166,0.4122166,0.6250392]},{"bufferView":1,"componentType":5126,"count":3337381,"type":"VEC3"},{"bufferView":2,"componentType":5125,"count":5006532,"type":"SCALAR"}],"bufferViews":[{"buffer":0,"byteLength":40048572,"byteOffset":0},{"buffer":0,"byteLength":40048572,"byteOffset":40048572},{"buffer":0,"byteLength":20026128,"byteOffset":80097144}],"buffers":[{"byteLength":100123272,"uri":"model.bin"}]}